<svg xmlns="http://www.w3.org/2000/svg" xmlns:xlink="http://www.w3.org/1999/xlink" width="500" zoomAndPan="magnify" viewBox="0 0 375 374.999991" height="500" preserveAspectRatio="xMidYMid meet" version="1.0"><defs><g/><clipPath id="3be4701787"><path d="M 9.816406 9.816406 L 365.316406 9.816406 L 365.316406 365.316406 L 9.816406 365.316406 Z M 9.816406 9.816406 " clip-rule="nonzero"/></clipPath></defs><g clip-path="url(#3be4701787)"><path fill="#78716c" d="M 365.316406 136.722656 L 320.476562 59.058594 L 232.003906 110.148438 L 232.003906 9.816406 L 143.128906 9.816406 L 143.128906 110.117188 L 54.660156 59.058594 L 9.816406 136.710938 L 97.910156 187.566406 L 9.816406 238.425781 L 54.660156 316.078125 L 143.128906 265 L 143.128906 365.316406 L 232.003906 365.316406 L 232.003906 264.988281 L 320.488281 316.078125 L 365.316406 238.414062 L 277.257812 187.566406 Z M 365.316406 136.722656 " fill-opacity="1" fill-rule="nonzero"/></g><g fill="#262626" fill-opacity="1"><g transform="translate(28.855066, 222.949417)"><g><path d="M 89.140625 -75.921875 C 86.785156 -73.003906 85.234375 -70.335938 84.484375 -67.921875 C 83.742188 -65.503906 83.375 -62.21875 83.375 -58.0625 L 83.375 -21.859375 C 83.375 -17.273438 83.601562 -13.320312 84.0625 -10 C 84.53125 -6.6875 85.289062 -3.351562 86.34375 0 L 69.3125 0 C 70.4375 -3.289062 71.210938 -6.578125 71.640625 -9.859375 C 72.078125 -13.148438 72.296875 -17.148438 72.296875 -21.859375 L 72.296875 -55.921875 L 45.96875 -23.359375 L 19.8125 -55.640625 L 19.8125 -21.859375 C 19.8125 -17.273438 20.046875 -13.320312 20.515625 -10 C 20.984375 -6.6875 21.742188 -3.351562 22.796875 0 L 5.765625 0 C 6.878906 -3.289062 7.65625 -6.578125 8.09375 -9.859375 C 8.53125 -13.148438 8.75 -17.148438 8.75 -21.859375 L 8.75 -68.015625 C 6.382812 -70.992188 3.898438 -73.628906 1.296875 -75.921875 L 1.296875 -76.203125 L 18.140625 -76.203125 C 18.953125 -74.285156 19.882812 -72.488281 20.9375 -70.8125 C 21.988281 -69.132812 23.539062 -67.054688 25.59375 -64.578125 L 46.0625 -39.265625 L 68.859375 -67.546875 C 71.335938 -70.585938 73.226562 -73.472656 74.53125 -76.203125 L 89.140625 -76.203125 Z M 89.140625 -75.921875 "/></g></g></g><g fill="#262626" fill-opacity="1"><g transform="translate(120.968111, 222.949417)"><g><path d="M 44.015625 -77.140625 C 51.265625 -77.140625 57.929688 -75.523438 64.015625 -72.296875 C 70.097656 -69.066406 74.921875 -64.535156 78.484375 -58.703125 C 82.046875 -52.878906 83.828125 -46.179688 83.828125 -38.609375 C 83.828125 -31.046875 82.0625 -24.253906 78.53125 -18.234375 C 75 -12.222656 70.160156 -7.523438 64.015625 -4.140625 C 57.867188 -0.753906 51.078125 0.9375 43.640625 0.9375 C 35.890625 0.9375 29.019531 -0.875 23.03125 -4.5 C 17.039062 -8.132812 12.429688 -12.945312 9.203125 -18.9375 C 5.984375 -24.925781 4.375 -31.300781 4.375 -38.0625 C 4.375 -45.125 6.125 -51.648438 9.625 -57.640625 C 13.132812 -63.628906 17.910156 -68.375 23.953125 -71.875 C 30.003906 -75.382812 36.691406 -77.140625 44.015625 -77.140625 Z M 41.78125 -69.046875 C 37.25 -69.046875 33.0625 -67.863281 29.21875 -65.5 C 25.375 -63.144531 22.316406 -59.8125 20.046875 -55.5 C 17.785156 -51.1875 16.65625 -46.207031 16.65625 -40.5625 C 16.65625 -34.675781 17.878906 -29.171875 20.328125 -24.046875 C 22.773438 -18.929688 26.21875 -14.835938 30.65625 -11.765625 C 35.09375 -8.703125 40.164062 -7.171875 45.875 -7.171875 C 50.894531 -7.171875 55.359375 -8.441406 59.265625 -10.984375 C 63.179688 -13.523438 66.222656 -16.984375 68.390625 -21.359375 C 70.554688 -25.734375 71.640625 -30.554688 71.640625 -35.828125 C 71.640625 -41.710938 70.304688 -47.210938 67.640625 -52.328125 C 64.972656 -57.453125 61.359375 -61.519531 56.796875 -64.53125 C 52.242188 -67.539062 47.238281 -69.046875 41.78125 -69.046875 Z M 41.78125 -69.046875 "/></g></g></g><g fill="#262626" fill-opacity="1"><g transform="translate(209.266378, 222.949417)"><g><path d="M 20.09375 0 C 21.207031 -3.289062 21.984375 -6.578125 22.421875 -9.859375 C 22.859375 -13.148438 23.078125 -17.148438 23.078125 -21.859375 L 23.078125 -68.203125 C 18.546875 -68.203125 14.21875 -67.75 10.09375 -66.84375 C 5.96875 -65.945312 2.257812 -64.691406 -1.03125 -63.078125 L -1.203125 -63.265625 L 2.609375 -76.203125 L 59.546875 -76.203125 L 54.34375 -64.109375 C 51.363281 -65.535156 48.320312 -66.570312 45.21875 -67.21875 C 42.113281 -67.875 38.421875 -68.203125 34.140625 -68.203125 L 34.140625 -21.859375 C 34.140625 -17.273438 34.375 -13.320312 34.84375 -10 C 35.3125 -6.6875 36.070312 -3.351562 37.125 0 Z M 20.09375 0 "/></g></g></g><g fill="#262626" fill-opacity="1"><g transform="translate(267.511595, 222.949417)"><g><path d="M 46.796875 -77.140625 C 54.117188 -77.140625 61.128906 -76.363281 67.828125 -74.8125 L 67.828125 -62.71875 L 67.546875 -62.625 C 63.703125 -64.789062 60.007812 -66.335938 56.46875 -67.265625 C 52.9375 -68.203125 49.34375 -68.671875 45.6875 -68.671875 C 40.164062 -68.671875 35.203125 -67.425781 30.796875 -64.9375 C 26.390625 -62.457031 22.929688 -58.9375 20.421875 -54.375 C 17.910156 -49.820312 16.65625 -44.566406 16.65625 -38.609375 C 16.65625 -32.597656 17.941406 -27.265625 20.515625 -22.609375 C 23.085938 -17.953125 26.6875 -14.335938 31.3125 -11.765625 C 35.9375 -9.191406 41.160156 -7.90625 46.984375 -7.90625 C 52.316406 -7.90625 56.972656 -8.804688 60.953125 -10.609375 L 60.953125 -17.671875 C 60.953125 -25.742188 59.273438 -32.660156 55.921875 -38.421875 L 74.15625 -38.421875 C 73.539062 -36.878906 73.03125 -34.863281 72.625 -32.375 C 72.21875 -29.894531 72.015625 -27.382812 72.015625 -24.84375 L 72.015625 -16.28125 C 72.015625 -10.945312 72.476562 -6.851562 73.40625 -4 C 69.4375 -2.445312 65.140625 -1.234375 60.515625 -0.359375 C 55.898438 0.503906 51.265625 0.9375 46.609375 0.9375 C 36.992188 0.9375 29.039062 -0.769531 22.75 -4.1875 C 16.457031 -7.601562 11.820312 -12.113281 8.84375 -17.71875 C 5.863281 -23.332031 4.375 -29.519531 4.375 -36.28125 C 4.375 -44.226562 6.15625 -51.300781 9.71875 -57.5 C 13.289062 -63.707031 18.285156 -68.53125 24.703125 -71.96875 C 31.117188 -75.414062 38.484375 -77.140625 46.796875 -77.140625 Z M 46.796875 -77.140625 "/></g></g></g></svg>